<svg width="357" height="287" viewBox="0 0 357 287" fill="none" xmlns="http://www.w3.org/2000/svg">
<path d="M135.375 108.284C135.375 90.8553 141.498 78.9405 154.645 78.9405C163.137 78.9405 168.142 85.5745 170.094 93.562L159.9 97.3052C159.133 93.4787 157.865 90.3372 154.645 90.3372C151.074 90.3372 148.522 94.9325 148.522 108.284C148.522 121.636 151.074 126.231 154.645 126.231C156.763 126.231 158.215 125.546 159.233 124.109V116.122H153.46V104.892H170.528V129.807C166.457 134.653 161.702 137.628 154.645 137.628C141.398 137.628 135.375 125.63 135.375 108.284Z" fill="#00AEEF"/>
<path d="M95.6356 108.284C95.6356 96.2862 92.9163 91.1056 88.1616 91.1056H85.192V125.379H88.1616C92.9999 125.379 95.6356 119.681 95.6356 108.284ZM72.362 136.609V79.8763H88.1616C102.693 79.8763 108.799 92.2921 108.799 108.284C108.799 124.276 102.777 136.609 88.2448 136.609H72.362Z" fill="#00AEEF"/>
<path d="M130.338 271.111H275.987L336.649 100.664L222.315 13.5021H76.6662L15.9876 183.95L130.338 271.111ZM285.496 284.597H125.8L0.00457764 188.712L67.1733 0H226.87L352.665 95.8848L285.513 284.597H285.496Z" fill="#00AEEF"/>
<path d="M128.503 79.8763H115.673V136.609H128.503V79.8763Z" fill="#00AEEF"/>
<path d="M191.267 79.8763H178.437V136.609H191.267V79.8763Z" fill="#00AEEF"/>
<path d="M206.032 136.609V91.1056H197.623V79.8763H227.27V91.1056H218.945V136.609H206.032Z" fill="#00AEEF"/>
<path d="M246.022 93.9798L242.636 116.188H249.426L246.022 93.9798ZM252.396 136.592L250.944 127.401H241.101L239.666 136.592H226.502L238.648 79.8594H253.43L265.576 136.592H252.412H252.396Z" fill="#00AEEF"/>
<path d="M270.148 136.609V79.8763H282.961V125.379H296.808V136.609H270.148Z" fill="#00AEEF"/>
<path d="M69.0584 200.86L74.4143 190.817C76.8832 193.792 80.7036 195.329 84.0904 195.329C87.0601 195.329 88.8456 193.207 88.8456 190.4C88.8456 181.811 70.6771 182.312 70.6771 164.716C70.6771 156.127 76.6164 148.055 87.8277 148.055C93.1 148.055 97.9383 149.843 101.241 152.901L96.4868 162.844C94.101 160.471 91.2981 159.452 88.2448 159.452C85.5255 159.452 83.7405 161.324 83.7405 164.047C83.7405 171.784 101.909 172.386 101.909 189.481C101.909 199.607 95.2852 206.743 84.9247 206.743C78.051 206.743 72.9459 204.788 69.0419 200.877" fill="#00AEEF"/>
<path d="M132.406 205.707L124.765 185.554L121.362 192.689V205.707H108.549V148.974H121.362V173.555L131.906 148.974H145.904L132.406 175.511L146.921 205.707H132.406Z" fill="#00AEEF"/>
<path d="M164.422 148.974H151.592V205.707H164.422V148.974Z" fill="#00AEEF"/>
<path d="M173.249 205.707V148.974H186.079V194.477H199.926V205.707H173.249Z" fill="#00AEEF"/>
<path d="M206.365 205.707V148.974H219.195V194.477H233.043V205.707H206.365Z" fill="#00AEEF"/>
<path d="M236.18 200.86L241.535 190.817C244.005 193.792 247.825 195.329 251.212 195.329C254.182 195.329 255.967 193.207 255.967 190.4C255.967 181.811 237.798 182.312 237.798 164.716C237.798 156.127 243.738 148.055 254.949 148.055C260.221 148.055 265.059 149.843 268.363 152.901L263.608 162.844C261.222 160.471 258.419 159.452 255.366 159.452C252.647 159.452 250.862 161.324 250.862 164.047C250.862 171.784 269.03 172.386 269.03 189.481C269.03 199.607 262.407 206.743 252.046 206.743C245.173 206.743 240.067 204.788 236.163 200.877" fill="#00AEEF"/>
<path d="M289.15 198.237C289.15 195.096 286.631 192.555 283.478 192.555C280.324 192.555 277.789 195.079 277.789 198.254C277.789 201.412 280.341 203.952 283.495 203.935C286.631 203.935 289.15 201.395 289.15 198.237ZM283.227 205.372C279.14 205.172 276.22 201.83 276.371 198.003C276.52 193.909 279.924 190.985 283.728 191.135C287.765 191.302 290.718 194.627 290.568 198.488C290.418 202.598 287.031 205.49 283.227 205.372Z" fill="#00AEEF"/>
<path d="M282.176 196.149V197.886H283.628C283.911 197.886 284.128 197.853 284.278 197.786C284.529 197.669 284.662 197.418 284.662 197.05C284.662 196.667 284.529 196.399 284.295 196.265C284.162 196.182 283.945 196.149 283.678 196.149H282.193H282.176ZM284.963 195.196C285.196 195.296 285.396 195.447 285.563 195.647C285.696 195.814 285.813 195.998 285.88 196.182C285.964 196.382 285.997 196.616 285.997 196.867C285.997 197.168 285.913 197.468 285.763 197.769C285.613 198.07 285.346 198.27 284.996 198.404C285.296 198.521 285.496 198.688 285.63 198.906C285.747 199.123 285.813 199.457 285.813 199.908V200.342C285.813 200.627 285.813 200.827 285.847 200.944C285.88 201.111 285.964 201.228 286.097 201.312V201.479H284.612C284.579 201.329 284.545 201.228 284.529 201.128C284.495 200.944 284.479 200.76 284.479 200.577V199.975C284.479 199.557 284.395 199.29 284.262 199.156C284.128 199.022 283.861 198.955 283.494 198.955H282.176V201.479H280.858V195.029H283.928C284.378 195.029 284.712 195.096 284.946 195.196" fill="#00AEEF"/>
</svg>
