<svg width="1920" height="1080" viewBox="0 0 1920 1080" fill="none" xmlns="http://www.w3.org/2000/svg">
<g clip-path="url(#clip0_2_30)">
<mask id="mask0_2_30" style="mask-type:luminance" maskUnits="userSpaceOnUse" x="0" y="0" width="1920" height="1080">
<path d="M1920 0H0V1080H1920V0Z" fill="white"/>
</mask>
<g mask="url(#mask0_2_30)">
<path d="M200.21 997.45L135.25 959.95L70.3 997.45V1072.45L135.25 1109.95L200.21 1072.45M200.21 997.45V1072.45M200.21 997.45L265.16 959.95L330.12 997.45V1072.45L265.16 1109.95L200.21 1072.45M265.16 734.95L330.12 772.45M265.16 734.95L200.21 772.45V847.45L265.16 884.95L330.12 847.45V772.45M265.16 734.95V659.95L330.12 622.45L395.07 659.95V734.95L330.12 772.45M395.07 59.95V-15.05L330.12 -52.55L265.16 -15.05V59.95L330.12 97.45M395.07 59.95L330.12 97.45M395.07 59.95L460.02 97.45V172.45L395.07 209.95L330.12 172.45V97.45M784.79 509.95V434.95L719.84 397.45L654.88 434.95V509.95L719.84 547.45M784.79 509.95L719.84 547.45M784.79 509.95L849.75 547.45V622.45L784.79 659.95M719.84 547.45V622.45M784.79 659.95L719.84 622.45M784.79 659.95V734.95L719.84 772.45L654.88 734.95V659.95L719.84 622.45M1239.47 397.45V322.45L1174.51 284.95L1109.56 322.45V397.45L1174.51 434.95M1239.47 397.45L1174.51 434.95M1239.47 397.45L1304.42 434.95V509.95L1239.47 547.45L1174.51 509.95V434.95M1694.14 509.95V434.95L1629.19 397.45L1564.24 434.95V509.95L1629.19 547.45M1694.14 509.95L1629.19 547.45M1694.14 509.95L1759.1 547.45V622.45L1694.14 659.95M1629.19 547.45V622.45M1694.14 659.95L1629.19 622.45M1694.14 659.95V734.95L1629.19 772.45L1564.24 734.95V659.95L1629.19 622.45M1889 172.45V97.45L1824.05 59.95L1759.1 97.45V172.45L1824.05 209.95M1889 172.45L1824.05 209.95M1889 172.45L1953.96 209.95V284.95L1889 322.45M1824.05 209.95V284.95M1824.05 284.95L1889 322.45M1824.05 284.95L1759.1 322.45V397.45L1824.05 434.95M1889 322.45V397.45M1889 397.45L1824.05 434.95M1889 397.45L1953.96 434.95V509.95L1889 547.45L1824.05 509.95V434.95M70.3 397.45L135.25 434.95V509.95L70.3 547.45L5.34998 509.95V434.95L70.3 397.45ZM265.16 284.95L330.12 322.45V397.45L265.16 434.95L200.21 397.45V322.45L265.16 284.95ZM524.98 959.95L589.93 997.45V1072.45L524.98 1109.95L460.02 1072.45V997.45L524.98 959.95ZM589.93 -52.55L654.88 -15.05V59.95L589.93 97.45L524.98 59.95V-15.05L589.93 -52.55ZM914.7 734.95L979.65 772.45V847.45L914.7 884.95L849.74 847.45V772.45L914.7 734.95ZM1044.61 509.95L1109.56 547.45V622.45L1044.61 659.95L979.65 622.45V547.45L1044.61 509.95ZM1434.33 959.95L1499.28 997.45V1072.45L1434.33 1109.95L1369.38 1072.45V997.45L1434.33 959.95ZM1759.1 847.45L1824.05 884.95V959.95L1759.1 997.45L1694.14 959.95V884.95L1759.1 847.45ZM1953.96 734.95L2018.91 772.45V847.45L1953.96 884.95L1889 847.45V772.45L1953.96 734.95Z" stroke="#00AEEF" stroke-opacity="0.4" stroke-width="2"/>
<path d="M62.8 397.45C62.8 399.439 63.5902 401.347 64.9967 402.753C66.4032 404.16 68.3109 404.95 70.3 404.95C72.2891 404.95 74.1968 404.16 75.6033 402.753C77.0098 401.347 77.8 399.439 77.8 397.45C77.8 395.461 77.0098 393.553 75.6033 392.147C74.1968 390.74 72.2891 389.95 70.3 389.95C68.3109 389.95 66.4032 390.74 64.9967 392.147C63.5902 393.553 62.8 395.461 62.8 397.45ZM127.75 434.95C127.75 436.939 128.54 438.847 129.947 440.253C131.353 441.66 133.261 442.45 135.25 442.45C137.239 442.45 139.147 441.66 140.553 440.253C141.96 438.847 142.75 436.939 142.75 434.95C142.75 432.961 141.96 431.053 140.553 429.647C139.147 428.24 137.239 427.45 135.25 427.45C133.261 427.45 131.353 428.24 129.947 429.647C128.54 431.053 127.75 432.961 127.75 434.95ZM127.75 509.95C127.75 511.939 128.54 513.847 129.947 515.253C131.353 516.66 133.261 517.45 135.25 517.45C137.239 517.45 139.147 516.66 140.553 515.253C141.96 513.847 142.75 511.939 142.75 509.95C142.75 507.961 141.96 506.053 140.553 504.647C139.147 503.24 137.239 502.45 135.25 502.45C133.261 502.45 131.353 503.24 129.947 504.647C128.54 506.053 127.75 507.961 127.75 509.95ZM62.8 547.45C62.8 549.439 63.5902 551.347 64.9967 552.753C66.4032 554.16 68.3109 554.95 70.3 554.95C72.2891 554.95 74.1968 554.16 75.6033 552.753C77.0098 551.347 77.8 549.439 77.8 547.45C77.8 545.461 77.0098 543.553 75.6033 542.147C74.1968 540.74 72.2891 539.95 70.3 539.95C68.3109 539.95 66.4032 540.74 64.9967 542.147C63.5902 543.553 62.8 545.461 62.8 547.45ZM-2.15002 509.95C-2.15002 510.935 -1.95603 511.91 -1.57912 512.82C-1.20221 513.73 -0.649765 514.557 0.0466747 515.253C0.743114 515.95 1.56991 516.502 2.47985 516.879C3.38979 517.256 4.36506 517.45 5.34998 517.45C6.33489 517.45 7.31016 517.256 8.2201 516.879C9.13004 516.502 9.95684 515.95 10.6533 515.253C11.3497 514.557 11.9022 513.73 12.2791 512.82C12.656 511.91 12.85 510.935 12.85 509.95C12.85 507.961 12.0598 506.053 10.6533 504.647C9.24675 503.24 7.3391 502.45 5.34998 502.45C3.36085 502.45 1.4532 503.24 0.0466747 504.647C-1.35985 506.053 -2.15002 507.961 -2.15002 509.95ZM-2.15002 434.95C-2.15002 435.935 -1.95603 436.91 -1.57912 437.82C-1.20221 438.73 -0.649765 439.557 0.0466747 440.253C0.743114 440.95 1.56991 441.502 2.47985 441.879C3.38979 442.256 4.36506 442.45 5.34998 442.45C6.33489 442.45 7.31016 442.256 8.2201 441.879C9.13004 441.502 9.95684 440.95 10.6533 440.253C11.3497 439.557 11.9022 438.73 12.2791 437.82C12.656 436.91 12.85 435.935 12.85 434.95C12.85 432.961 12.0598 431.053 10.6533 429.647C9.24675 428.24 7.3391 427.45 5.34998 427.45C3.36085 427.45 1.4532 428.24 0.0466747 429.647C-1.35985 431.053 -2.15002 432.961 -2.15002 434.95ZM127.75 959.95C127.75 961.939 128.54 963.847 129.947 965.253C131.353 966.66 133.261 967.45 135.25 967.45C137.239 967.45 139.147 966.66 140.553 965.253C141.96 963.847 142.75 961.939 142.75 959.95C142.75 957.961 141.96 956.053 140.553 954.647C139.147 953.24 137.239 952.45 135.25 952.45C133.261 952.45 131.353 953.24 129.947 954.647C128.54 956.053 127.75 957.961 127.75 959.95ZM192.71 997.45C192.71 999.439 193.5 1001.35 194.907 1002.75C196.313 1004.16 198.221 1004.95 200.21 1004.95C202.199 1004.95 204.107 1004.16 205.513 1002.75C206.92 1001.35 207.71 999.439 207.71 997.45C207.71 995.461 206.92 993.553 205.513 992.147C204.107 990.74 202.199 989.95 200.21 989.95C198.221 989.95 196.313 990.74 194.907 992.147C193.5 993.553 192.71 995.461 192.71 997.45ZM192.71 1072.45C192.71 1074.44 193.5 1076.35 194.907 1077.75C196.313 1079.16 198.221 1079.95 200.21 1079.95C202.199 1079.95 204.107 1079.16 205.513 1077.75C206.92 1076.35 207.71 1074.44 207.71 1072.45C207.71 1070.46 206.92 1068.55 205.513 1067.15C204.107 1065.74 202.199 1064.95 200.21 1064.95C198.221 1064.95 196.313 1065.74 194.907 1067.15C193.5 1068.55 192.71 1070.46 192.71 1072.45ZM127.75 1109.95C127.75 1111.94 128.54 1113.85 129.947 1115.25C131.353 1116.66 133.261 1117.45 135.25 1117.45C137.239 1117.45 139.147 1116.66 140.553 1115.25C141.96 1113.85 142.75 1111.94 142.75 1109.95C142.75 1107.96 141.96 1106.05 140.553 1104.65C139.147 1103.24 137.239 1102.45 135.25 1102.45C133.261 1102.45 131.353 1103.24 129.947 1104.65C128.54 1106.05 127.75 1107.96 127.75 1109.95ZM62.8 1072.45C62.8 1074.44 63.5902 1076.35 64.9967 1077.75C66.4032 1079.16 68.3109 1079.95 70.3 1079.95C72.2891 1079.95 74.1968 1079.16 75.6033 1077.75C77.0098 1076.35 77.8 1074.44 77.8 1072.45C77.8 1070.46 77.0098 1068.55 75.6033 1067.15C74.1968 1065.74 72.2891 1064.95 70.3 1064.95C68.3109 1064.95 66.4032 1065.74 64.9967 1067.15C63.5902 1068.55 62.8 1070.46 62.8 1072.45ZM62.8 997.45C62.8 999.439 63.5902 1001.35 64.9967 1002.75C66.4032 1004.16 68.3109 1004.95 70.3 1004.95C72.2891 1004.95 74.1968 1004.16 75.6033 1002.75C77.0098 1001.35 77.8 999.439 77.8 997.45C77.8 995.461 77.0098 993.553 75.6033 992.147C74.1968 990.74 72.2891 989.95 70.3 989.95C68.3109 989.95 66.4032 990.74 64.9967 992.147C63.5902 993.553 62.8 995.461 62.8 997.45ZM257.66 284.95C257.66 286.939 258.45 288.847 259.857 290.253C261.263 291.66 263.171 292.45 265.16 292.45C267.149 292.45 269.057 291.66 270.463 290.253C271.87 288.847 272.66 286.939 272.66 284.95C272.66 282.961 271.87 281.053 270.463 279.647C269.057 278.24 267.149 277.45 265.16 277.45C263.171 277.45 261.263 278.24 259.857 279.647C258.45 281.053 257.66 282.961 257.66 284.95ZM322.62 322.45C322.62 324.439 323.41 326.347 324.817 327.753C326.223 329.16 328.131 329.95 330.12 329.95C332.109 329.95 334.017 329.16 335.423 327.753C336.83 326.347 337.62 324.439 337.62 322.45C337.62 320.461 336.83 318.553 335.423 317.147C334.017 315.74 332.109 314.95 330.12 314.95C328.131 314.95 326.223 315.74 324.817 317.147C323.41 318.553 322.62 320.461 322.62 322.45ZM322.62 397.45C322.62 399.439 323.41 401.347 324.817 402.753C326.223 404.16 328.131 404.95 330.12 404.95C332.109 404.95 334.017 404.16 335.423 402.753C336.83 401.347 337.62 399.439 337.62 397.45C337.62 395.461 336.83 393.553 335.423 392.147C334.017 390.74 332.109 389.95 330.12 389.95C328.131 389.95 326.223 390.74 324.817 392.147C323.41 393.553 322.62 395.461 322.62 397.45ZM257.66 434.95C257.66 436.939 258.45 438.847 259.857 440.253C261.263 441.66 263.171 442.45 265.16 442.45C267.149 442.45 269.057 441.66 270.463 440.253C271.87 438.847 272.66 436.939 272.66 434.95C272.66 432.961 271.87 431.053 270.463 429.647C269.057 428.24 267.149 427.45 265.16 427.45C263.171 427.45 261.263 428.24 259.857 429.647C258.45 431.053 257.66 432.961 257.66 434.95ZM192.71 397.45C192.71 399.439 193.5 401.347 194.907 402.753C196.313 404.16 198.221 404.95 200.21 404.95C202.199 404.95 204.107 404.16 205.513 402.753C206.92 401.347 207.71 399.439 207.71 397.45C207.71 395.461 206.92 393.553 205.513 392.147C204.107 390.74 202.199 389.95 200.21 389.95C198.221 389.95 196.313 390.74 194.907 392.147C193.5 393.553 192.71 395.461 192.71 397.45ZM192.71 322.45C192.71 324.439 193.5 326.347 194.907 327.753C196.313 329.16 198.221 329.95 200.21 329.95C202.199 329.95 204.107 329.16 205.513 327.753C206.92 326.347 207.71 324.439 207.71 322.45C207.71 320.461 206.92 318.553 205.513 317.147C204.107 315.74 202.199 314.95 200.21 314.95C198.221 314.95 196.313 315.74 194.907 317.147C193.5 318.553 192.71 320.461 192.71 322.45ZM257.66 734.95C257.66 736.939 258.45 738.847 259.857 740.253C261.263 741.66 263.171 742.45 265.16 742.45C267.149 742.45 269.057 741.66 270.463 740.253C271.87 738.847 272.66 736.939 272.66 734.95C272.66 732.961 271.87 731.053 270.463 729.647C269.057 728.24 267.149 727.45 265.16 727.45C263.171 727.45 261.263 728.24 259.857 729.647C258.45 731.053 257.66 732.961 257.66 734.95ZM322.62 772.45C322.62 774.439 323.41 776.347 324.817 777.753C326.223 779.16 328.131 779.95 330.12 779.95C332.109 779.95 334.017 779.16 335.423 777.753C336.83 776.347 337.62 774.439 337.62 772.45C337.62 770.461 336.83 768.553 335.423 767.147C334.017 765.74 332.109 764.95 330.12 764.95C328.131 764.95 326.223 765.74 324.817 767.147C323.41 768.553 322.62 770.461 322.62 772.45ZM322.62 847.45C322.62 849.439 323.41 851.347 324.817 852.753C326.223 854.16 328.131 854.95 330.12 854.95C332.109 854.95 334.017 854.16 335.423 852.753C336.83 851.347 337.62 849.439 337.62 847.45C337.62 845.461 336.83 843.553 335.423 842.147C334.017 840.74 332.109 839.95 330.12 839.95C328.131 839.95 326.223 840.74 324.817 842.147C323.41 843.553 322.62 845.461 322.62 847.45ZM257.66 884.95C257.66 886.939 258.45 888.847 259.857 890.253C261.263 891.66 263.171 892.45 265.16 892.45C267.149 892.45 269.057 891.66 270.463 890.253C271.87 888.847 272.66 886.939 272.66 884.95C272.66 882.961 271.87 881.053 270.463 879.647C269.057 878.24 267.149 877.45 265.16 877.45C263.171 877.45 261.263 878.24 259.857 879.647C258.45 881.053 257.66 882.961 257.66 884.95ZM192.71 847.45C192.71 849.439 193.5 851.347 194.907 852.753C196.313 854.16 198.221 854.95 200.21 854.95C202.199 854.95 204.107 854.16 205.513 852.753C206.92 851.347 207.71 849.439 207.71 847.45C207.71 845.461 206.92 843.553 205.513 842.147C204.107 840.74 202.199 839.95 200.21 839.95C198.221 839.95 196.313 840.74 194.907 842.147C193.5 843.553 192.71 845.461 192.71 847.45ZM192.71 772.45C192.71 774.439 193.5 776.347 194.907 777.753C196.313 779.16 198.221 779.95 200.21 779.95C202.199 779.95 204.107 779.16 205.513 777.753C206.92 776.347 207.71 774.439 207.71 772.45C207.71 770.461 206.92 768.553 205.513 767.147C204.107 765.74 202.199 764.95 200.21 764.95C198.221 764.95 196.313 765.74 194.907 767.147C193.5 768.553 192.71 770.461 192.71 772.45ZM257.66 959.95C257.66 961.939 258.45 963.847 259.857 965.253C261.263 966.66 263.171 967.45 265.16 967.45C267.149 967.45 269.057 966.66 270.463 965.253C271.87 963.847 272.66 961.939 272.66 959.95C272.66 957.961 271.87 956.053 270.463 954.647C269.057 953.24 267.149 952.45 265.16 952.45C263.171 952.45 261.263 953.24 259.857 954.647C258.45 956.053 257.66 957.961 257.66 959.95ZM322.62 997.45C322.62 999.439 323.41 1001.35 324.817 1002.75C326.223 1004.16 328.131 1004.95 330.12 1004.95C332.109 1004.95 334.017 1004.16 335.423 1002.75C336.83 1001.35 337.62 999.439 337.62 997.45C337.62 995.461 336.83 993.553 335.423 992.147C334.017 990.74 332.109 989.95 330.12 989.95C328.131 989.95 326.223 990.74 324.817 992.147C323.41 993.553 322.62 995.461 322.62 997.45ZM322.62 1072.45C322.62 1074.44 323.41 1076.35 324.817 1077.75C326.223 1079.16 328.131 1079.95 330.12 1079.95C332.109 1079.95 334.017 1079.16 335.423 1077.75C336.83 1076.35 337.62 1074.44 337.62 1072.45C337.62 1070.46 336.83 1068.55 335.423 1067.15C334.017 1065.74 332.109 1064.95 330.12 1064.95C328.131 1064.95 326.223 1065.74 324.817 1067.15C323.41 1068.55 322.62 1070.46 322.62 1072.45ZM257.66 1109.95C257.66 1111.94 258.45 1113.85 259.857 1115.25C261.263 1116.66 263.171 1117.45 265.16 1117.45C267.149 1117.45 269.057 1116.66 270.463 1115.25C271.87 1113.85 272.66 1111.94 272.66 1109.95C272.66 1107.96 271.87 1106.05 270.463 1104.65C269.057 1103.24 267.149 1102.45 265.16 1102.45C263.171 1102.45 261.263 1103.24 259.857 1104.65C258.45 1106.05 257.66 1107.96 257.66 1109.95ZM322.62 -52.55C322.62 -50.5609 323.41 -48.6532 324.817 -47.2467C326.223 -45.8402 328.131 -45.05 330.12 -45.05C332.109 -45.05 334.017 -45.8402 335.423 -47.2467C336.83 -48.6532 337.62 -50.5609 337.62 -52.55C337.62 -54.5391 336.83 -56.4468 335.423 -57.8533C334.017 -59.2598 332.109 -60.05 330.12 -60.05C328.131 -60.05 326.223 -59.2598 324.817 -57.8533C323.41 -56.4468 322.62 -54.5391 322.62 -52.55ZM387.57 -15.05C387.57 -13.0609 388.36 -11.1532 389.767 -9.74669C391.173 -8.34017 393.081 -7.54999 395.07 -7.54999C397.059 -7.54999 398.967 -8.34017 400.373 -9.74669C401.78 -11.1532 402.57 -13.0609 402.57 -15.05C402.57 -17.0391 401.78 -18.9468 400.373 -20.3533C398.967 -21.7598 397.059 -22.55 395.07 -22.55C393.081 -22.55 391.173 -21.7598 389.767 -20.3533C388.36 -18.9468 387.57 -17.0391 387.57 -15.05ZM387.57 59.95C387.57 61.9391 388.36 63.8468 389.767 65.2533C391.173 66.6598 393.081 67.45 395.07 67.45C397.059 67.45 398.967 66.6598 400.373 65.2533C401.78 63.8468 402.57 61.9391 402.57 59.95C402.57 57.9609 401.78 56.0532 400.373 54.6467C398.967 53.2402 397.059 52.45 395.07 52.45C393.081 52.45 391.173 53.2402 389.767 54.6467C388.36 56.0532 387.57 57.9609 387.57 59.95ZM322.62 97.45C322.62 99.4391 323.41 101.347 324.817 102.753C326.223 104.16 328.131 104.95 330.12 104.95C332.109 104.95 334.017 104.16 335.423 102.753C336.83 101.347 337.62 99.4391 337.62 97.45C337.62 95.4609 336.83 93.5532 335.423 92.1467C334.017 90.7402 332.109 89.95 330.12 89.95C328.131 89.95 326.223 90.7402 324.817 92.1467C323.41 93.5532 322.62 95.4609 322.62 97.45ZM257.66 59.95C257.66 61.9391 258.45 63.8468 259.857 65.2533C261.263 66.6598 263.171 67.45 265.16 67.45C267.149 67.45 269.057 66.6598 270.463 65.2533C271.87 63.8468 272.66 61.9391 272.66 59.95C272.66 57.9609 271.87 56.0532 270.463 54.6467C269.057 53.2402 267.149 52.45 265.16 52.45C263.171 52.45 261.263 53.2402 259.857 54.6467C258.45 56.0532 257.66 57.9609 257.66 59.95ZM257.66 -15.05C257.66 -13.0609 258.45 -11.1532 259.857 -9.74669C261.263 -8.34017 263.171 -7.54999 265.16 -7.54999C267.149 -7.54999 269.057 -8.34017 270.463 -9.74669C271.87 -11.1532 272.66 -13.0609 272.66 -15.05C272.66 -17.0391 271.87 -18.9468 270.463 -20.3533C269.057 -21.7598 267.149 -22.55 265.16 -22.55C263.171 -22.55 261.263 -21.7598 259.857 -20.3533C258.45 -18.9468 257.66 -17.0391 257.66 -15.05ZM452.52 97.45C452.52 99.4391 453.31 101.347 454.717 102.753C456.123 104.16 458.031 104.95 460.02 104.95C462.009 104.95 463.917 104.16 465.323 102.753C466.73 101.347 467.52 99.4391 467.52 97.45C467.52 95.4609 466.73 93.5532 465.323 92.1467C463.917 90.7402 462.009 89.95 460.02 89.95C458.031 89.95 456.123 90.7402 454.717 92.1467C453.31 93.5532 452.52 95.4609 452.52 97.45ZM452.52 172.45C452.52 174.439 453.31 176.347 454.717 177.753C456.123 179.16 458.031 179.95 460.02 179.95C462.009 179.95 463.917 179.16 465.323 177.753C466.73 176.347 467.52 174.439 467.52 172.45C467.52 170.461 466.73 168.553 465.323 167.147C463.917 165.74 462.009 164.95 460.02 164.95C458.031 164.95 456.123 165.74 454.717 167.147C453.31 168.553 452.52 170.461 452.52 172.45ZM387.57 209.95C387.57 211.939 388.36 213.847 389.767 215.253C391.173 216.66 393.081 217.45 395.07 217.45C397.059 217.45 398.967 216.66 400.373 215.253C401.78 213.847 402.57 211.939 402.57 209.95C402.57 207.961 401.78 206.053 400.373 204.647C398.967 203.24 397.059 202.45 395.07 202.45C393.081 202.45 391.173 203.24 389.767 204.647C388.36 206.053 387.57 207.961 387.57 209.95ZM322.62 172.45C322.62 174.439 323.41 176.347 324.817 177.753C326.223 179.16 328.131 179.95 330.12 179.95C332.109 179.95 334.017 179.16 335.423 177.753C336.83 176.347 337.62 174.439 337.62 172.45C337.62 170.461 336.83 168.553 335.423 167.147C334.017 165.74 332.109 164.95 330.12 164.95C328.131 164.95 326.223 165.74 324.817 167.147C323.41 168.553 322.62 170.461 322.62 172.45ZM322.62 622.45C322.62 624.439 323.41 626.347 324.817 627.753C326.223 629.16 328.131 629.95 330.12 629.95C332.109 629.95 334.017 629.16 335.423 627.753C336.83 626.347 337.62 624.439 337.62 622.45C337.62 620.461 336.83 618.553 335.423 617.147C334.017 615.74 332.109 614.95 330.12 614.95C328.131 614.95 326.223 615.74 324.817 617.147C323.41 618.553 322.62 620.461 322.62 622.45ZM387.57 659.95C387.57 661.939 388.36 663.847 389.767 665.253C391.173 666.66 393.081 667.45 395.07 667.45C397.059 667.45 398.967 666.66 400.373 665.253C401.78 663.847 402.57 661.939 402.57 659.95C402.57 657.961 401.78 656.053 400.373 654.647C398.967 653.24 397.059 652.45 395.07 652.45C393.081 652.45 391.173 653.24 389.767 654.647C388.36 656.053 387.57 657.961 387.57 659.95ZM387.57 734.95C387.57 736.939 388.36 738.847 389.767 740.253C391.173 741.66 393.081 742.45 395.07 742.45C397.059 742.45 398.967 741.66 400.373 740.253C401.78 738.847 402.57 736.939 402.57 734.95C402.57 732.961 401.78 731.053 400.373 729.647C398.967 728.24 397.059 727.45 395.07 727.45C393.081 727.45 391.173 728.24 389.767 729.647C388.36 731.053 387.57 732.961 387.57 734.95ZM257.66 659.95C257.66 661.939 258.45 663.847 259.857 665.253C261.263 666.66 263.171 667.45 265.16 667.45C267.149 667.45 269.057 666.66 270.463 665.253C271.87 663.847 272.66 661.939 272.66 659.95C272.66 657.961 271.87 656.053 270.463 654.647C269.057 653.24 267.149 652.45 265.16 652.45C263.171 652.45 261.263 653.24 259.857 654.647C258.45 656.053 257.66 657.961 257.66 659.95ZM517.48 959.95C517.48 961.939 518.27 963.847 519.677 965.253C521.083 966.66 522.991 967.45 524.98 967.45C526.969 967.45 528.877 966.66 530.283 965.253C531.69 963.847 532.48 961.939 532.48 959.95C532.48 957.961 531.69 956.053 530.283 954.647C528.877 953.24 526.969 952.45 524.98 952.45C522.991 952.45 521.083 953.24 519.677 954.647C518.27 956.053 517.48 957.961 517.48 959.95ZM582.43 997.45C582.43 999.439 583.22 1001.35 584.627 1002.75C586.033 1004.16 587.941 1004.95 589.93 1004.95C591.919 1004.95 593.827 1004.16 595.233 1002.75C596.64 1001.35 597.43 999.439 597.43 997.45C597.43 995.461 596.64 993.553 595.233 992.147C593.827 990.74 591.919 989.95 589.93 989.95C587.941 989.95 586.033 990.74 584.627 992.147C583.22 993.553 582.43 995.461 582.43 997.45ZM582.43 1072.45C582.43 1074.44 583.22 1076.35 584.627 1077.75C586.033 1079.16 587.941 1079.95 589.93 1079.95C591.919 1079.95 593.827 1079.16 595.233 1077.75C596.64 1076.35 597.43 1074.44 597.43 1072.45C597.43 1070.46 596.64 1068.55 595.233 1067.15C593.827 1065.74 591.919 1064.95 589.93 1064.95C587.941 1064.95 586.033 1065.74 584.627 1067.15C583.22 1068.55 582.43 1070.46 582.43 1072.45ZM517.48 1109.95C517.48 1111.94 518.27 1113.85 519.677 1115.25C521.083 1116.66 522.991 1117.45 524.98 1117.45C526.969 1117.45 528.877 1116.66 530.283 1115.25C531.69 1113.85 532.48 1111.94 532.48 1109.95C532.48 1107.96 531.69 1106.05 530.283 1104.65C528.877 1103.24 526.969 1102.45 524.98 1102.45C522.991 1102.45 521.083 1103.24 519.677 1104.65C518.27 1106.05 517.48 1107.96 517.48 1109.95ZM452.52 1072.45C452.52 1074.44 453.31 1076.35 454.717 1077.75C456.123 1079.16 458.031 1079.95 460.02 1079.95C462.009 1079.95 463.917 1079.16 465.323 1077.75C466.73 1076.35 467.52 1074.44 467.52 1072.45C467.52 1070.46 466.73 1068.55 465.323 1067.15C463.917 1065.74 462.009 1064.95 460.02 1064.95C458.031 1064.95 456.123 1065.74 454.717 1067.15C453.31 1068.55 452.52 1070.46 452.52 1072.45ZM452.52 997.45C452.52 999.439 453.31 1001.35 454.717 1002.75C456.123 1004.16 458.031 1004.95 460.02 1004.95C462.009 1004.95 463.917 1004.16 465.323 1002.75C466.73 1001.35 467.52 999.439 467.52 997.45C467.52 995.461 466.73 993.553 465.323 992.147C463.917 990.74 462.009 989.95 460.02 989.95C458.031 989.95 456.123 990.74 454.717 992.147C453.31 993.553 452.52 995.461 452.52 997.45ZM582.43 -52.55C582.43 -50.5609 583.22 -48.6532 584.627 -47.2467C586.033 -45.8402 587.941 -45.05 589.93 -45.05C591.919 -45.05 593.827 -45.8402 595.233 -47.2467C596.64 -48.6532 597.43 -50.5609 597.43 -52.55C597.43 -54.5391 596.64 -56.4468 595.233 -57.8533C593.827 -59.2598 591.919 -60.05 589.93 -60.05C587.941 -60.05 586.033 -59.2598 584.627 -57.8533C583.22 -56.4468 582.43 -54.5391 582.43 -52.55ZM647.38 -15.05C647.38 -13.0609 648.17 -11.1532 649.577 -9.74669C650.983 -8.34017 652.891 -7.54999 654.88 -7.54999C656.869 -7.54999 658.777 -8.34017 660.183 -9.74669C661.59 -11.1532 662.38 -13.0609 662.38 -15.05C662.38 -17.0391 661.59 -18.9468 660.183 -20.3533C658.777 -21.7598 656.869 -22.55 654.88 -22.55C652.891 -22.55 650.983 -21.7598 649.577 -20.3533C648.17 -18.9468 647.38 -17.0391 647.38 -15.05ZM647.38 59.95C647.38 61.9391 648.17 63.8468 649.577 65.2533C650.983 66.6598 652.891 67.45 654.88 67.45C656.869 67.45 658.777 66.6598 660.183 65.2533C661.59 63.8468 662.38 61.9391 662.38 59.95C662.38 57.9609 661.59 56.0532 660.183 54.6467C658.777 53.2402 656.869 52.45 654.88 52.45C652.891 52.45 650.983 53.2402 649.577 54.6467C648.17 56.0532 647.38 57.9609 647.38 59.95ZM582.43 97.45C582.43 99.4391 583.22 101.347 584.627 102.753C586.033 104.16 587.941 104.95 589.93 104.95C591.919 104.95 593.827 104.16 595.233 102.753C596.64 101.347 597.43 99.4391 597.43 97.45C597.43 95.4609 596.64 93.5532 595.233 92.1467C593.827 90.7402 591.919 89.95 589.93 89.95C587.941 89.95 586.033 90.7402 584.627 92.1467C583.22 93.5532 582.43 95.4609 582.43 97.45ZM517.48 59.95C517.48 61.9391 518.27 63.8468 519.677 65.2533C521.083 66.6598 522.991 67.45 524.98 67.45C526.969 67.45 528.877 66.6598 530.283 65.2533C531.69 63.8468 532.48 61.9391 532.48 59.95C532.48 57.9609 531.69 56.0532 530.283 54.6467C528.877 53.2402 526.969 52.45 524.98 52.45C522.991 52.45 521.083 53.2402 519.677 54.6467C518.27 56.0532 517.48 57.9609 517.48 59.95ZM517.48 -15.05C517.48 -13.0609 518.27 -11.1532 519.677 -9.74669C521.083 -8.34017 522.991 -7.54999 524.98 -7.54999C526.969 -7.54999 528.877 -8.34017 530.283 -9.74669C531.69 -11.1532 532.48 -13.0609 532.48 -15.05C532.48 -17.0391 531.69 -18.9468 530.283 -20.3533C528.877 -21.7598 526.969 -22.55 524.98 -22.55C522.991 -22.55 521.083 -21.7598 519.677 -20.3533C518.27 -18.9468 517.48 -17.0391 517.48 -15.05ZM712.34 397.45C712.34 399.439 713.13 401.347 714.537 402.753C715.943 404.16 717.851 404.95 719.84 404.95C721.829 404.95 723.737 404.16 725.143 402.753C726.55 401.347 727.34 399.439 727.34 397.45C727.34 395.461 726.55 393.553 725.143 392.147C723.737 390.74 721.829 389.95 719.84 389.95C717.851 389.95 715.943 390.74 714.537 392.147C713.13 393.553 712.34 395.461 712.34 397.45ZM777.29 434.95C777.29 436.939 778.08 438.847 779.487 440.253C780.893 441.66 782.801 442.45 784.79 442.45C786.779 442.45 788.687 441.66 790.093 440.253C791.5 438.847 792.29 436.939 792.29 434.95C792.29 432.961 791.5 431.053 790.093 429.647C788.687 428.24 786.779 427.45 784.79 427.45C782.801 427.45 780.893 428.24 779.487 429.647C778.08 431.053 777.29 432.961 777.29 434.95ZM777.29 509.95C777.29 511.939 778.08 513.847 779.487 515.253C780.893 516.66 782.801 517.45 784.79 517.45C786.779 517.45 788.687 516.66 790.093 515.253C791.5 513.847 792.29 511.939 792.29 509.95C792.29 507.961 791.5 506.053 790.093 504.647C788.687 503.24 786.779 502.45 784.79 502.45C782.801 502.45 780.893 503.24 779.487 504.647C778.08 506.053 777.29 507.961 777.29 509.95ZM712.34 547.45C712.34 549.439 713.13 551.347 714.537 552.753C715.943 554.16 717.851 554.95 719.84 554.95C721.829 554.95 723.737 554.16 725.143 552.753C726.55 551.347 727.34 549.439 727.34 547.45C727.34 545.461 726.55 543.553 725.143 542.147C723.737 540.74 721.829 539.95 719.84 539.95C717.851 539.95 715.943 540.74 714.537 542.147C713.13 543.553 712.34 545.461 712.34 547.45ZM647.38 509.95C647.38 511.939 648.17 513.847 649.577 515.253C650.983 516.66 652.891 517.45 654.88 517.45C656.869 517.45 658.777 516.66 660.183 515.253C661.59 513.847 662.38 511.939 662.38 509.95C662.38 507.961 661.59 506.053 660.183 504.647C658.777 503.24 656.869 502.45 654.88 502.45C652.891 502.45 650.983 503.24 649.577 504.647C648.17 506.053 647.38 507.961 647.38 509.95ZM647.38 434.95C647.38 436.939 648.17 438.847 649.577 440.253C650.983 441.66 652.891 442.45 654.88 442.45C656.869 442.45 658.777 441.66 660.183 440.253C661.59 438.847 662.38 436.939 662.38 434.95C662.38 432.961 661.59 431.053 660.183 429.647C658.777 428.24 656.869 427.45 654.88 427.45C652.891 427.45 650.983 428.24 649.577 429.647C648.17 431.053 647.38 432.961 647.38 434.95ZM842.25 547.45C842.25 549.439 843.04 551.347 844.447 552.753C845.853 554.16 847.761 554.95 849.75 554.95C851.739 554.95 853.647 554.16 855.053 552.753C856.46 551.347 857.25 549.439 857.25 547.45C857.25 545.461 856.46 543.553 855.053 542.147C853.647 540.74 851.739 539.95 849.75 539.95C847.761 539.95 845.853 540.74 844.447 542.147C843.04 543.553 842.25 545.461 842.25 547.45ZM842.25 622.45C842.25 624.439 843.04 626.347 844.447 627.753C845.853 629.16 847.761 629.95 849.75 629.95C851.739 629.95 853.647 629.16 855.053 627.753C856.46 626.347 857.25 624.439 857.25 622.45C857.25 620.461 856.46 618.553 855.053 617.147C853.647 615.74 851.739 614.95 849.75 614.95C847.761 614.95 845.853 615.74 844.447 617.147C843.04 618.553 842.25 620.461 842.25 622.45ZM777.29 659.95C777.29 661.939 778.08 663.847 779.487 665.253C780.893 666.66 782.801 667.45 784.79 667.45C786.779 667.45 788.687 666.66 790.093 665.253C791.5 663.847 792.29 661.939 792.29 659.95C792.29 657.961 791.5 656.053 790.093 654.647C788.687 653.24 786.779 652.45 784.79 652.45C782.801 652.45 780.893 653.24 779.487 654.647C778.08 656.053 777.29 657.961 777.29 659.95ZM712.34 622.45C712.34 624.439 713.13 626.347 714.537 627.753C715.943 629.16 717.851 629.95 719.84 629.95C721.829 629.95 723.737 629.16 725.143 627.753C726.55 626.347 727.34 624.439 727.34 622.45C727.34 620.461 726.55 618.553 725.143 617.147C723.737 615.74 721.829 614.95 719.84 614.95C717.851 614.95 715.943 615.74 714.537 617.147C713.13 618.553 712.34 620.461 712.34 622.45ZM777.29 734.95C777.29 736.939 778.08 738.847 779.487 740.253C780.893 741.66 782.801 742.45 784.79 742.45C786.779 742.45 788.687 741.66 790.093 740.253C791.5 738.847 792.29 736.939 792.29 734.95C792.29 732.961 791.5 731.053 790.093 729.647C788.687 728.24 786.779 727.45 784.79 727.45C782.801 727.45 780.893 728.24 779.487 729.647C778.08 731.053 777.29 732.961 777.29 734.95ZM712.34 772.45C712.34 774.439 713.13 776.347 714.537 777.753C715.943 779.16 717.851 779.95 719.84 779.95C721.829 779.95 723.737 779.16 725.143 777.753C726.55 776.347 727.34 774.439 727.34 772.45C727.34 770.461 726.55 768.553 725.143 767.147C723.737 765.74 721.829 764.95 719.84 764.95C717.851 764.95 715.943 765.74 714.537 767.147C713.13 768.553 712.34 770.461 712.34 772.45ZM647.38 734.95C647.38 736.939 648.17 738.847 649.577 740.253C650.983 741.66 652.891 742.45 654.88 742.45C656.869 742.45 658.777 741.66 660.183 740.253C661.59 738.847 662.38 736.939 662.38 734.95C662.38 732.961 661.59 731.053 660.183 729.647C658.777 728.24 656.869 727.45 654.88 727.45C652.891 727.45 650.983 728.24 649.577 729.647C648.17 731.053 647.38 732.961 647.38 734.95ZM647.38 659.95C647.38 661.939 648.17 663.847 649.577 665.253C650.983 666.66 652.891 667.45 654.88 667.45C656.869 667.45 658.777 666.66 660.183 665.253C661.59 663.847 662.38 661.939 662.38 659.95C662.38 657.961 661.59 656.053 660.183 654.647C658.777 653.24 656.869 652.45 654.88 652.45C652.891 652.45 650.983 653.24 649.577 654.647C648.17 656.053 647.38 657.961 647.38 659.95ZM907.2 734.95C907.2 736.939 907.99 738.847 909.397 740.253C910.803 741.66 912.711 742.45 914.7 742.45C916.689 742.45 918.597 741.66 920.003 740.253C921.41 738.847 922.2 736.939 922.2 734.95C922.2 732.961 921.41 731.053 920.003 729.647C918.597 728.24 916.689 727.45 914.7 727.45C912.711 727.45 910.803 728.24 909.397 729.647C907.99 731.053 907.2 732.961 907.2 734.95ZM972.15 772.45C972.15 774.439 972.94 776.347 974.347 777.753C975.753 779.16 977.661 779.95 979.65 779.95C981.639 779.95 983.547 779.16 984.953 777.753C986.36 776.347 987.15 774.439 987.15 772.45C987.15 770.461 986.36 768.553 984.953 767.147C983.547 765.74 981.639 764.95 979.65 764.95C977.661 764.95 975.753 765.74 974.347 767.147C972.94 768.553 972.15 770.461 972.15 772.45ZM972.15 847.45C972.15 849.439 972.94 851.347 974.347 852.753C975.753 854.16 977.661 854.95 979.65 854.95C981.639 854.95 983.547 854.16 984.953 852.753C986.36 851.347 987.15 849.439 987.15 847.45C987.15 845.461 986.36 843.553 984.953 842.147C983.547 840.74 981.639 839.95 979.65 839.95C977.661 839.95 975.753 840.74 974.347 842.147C972.94 843.553 972.15 845.461 972.15 847.45ZM907.2 884.95C907.2 886.939 907.99 888.847 909.397 890.253C910.803 891.66 912.711 892.45 914.7 892.45C916.689 892.45 918.597 891.66 920.003 890.253C921.41 888.847 922.2 886.939 922.2 884.95C922.2 882.961 921.41 881.053 920.003 879.647C918.597 878.24 916.689 877.45 914.7 877.45C912.711 877.45 910.803 878.24 909.397 879.647C907.99 881.053 907.2 882.961 907.2 884.95ZM842.24 847.45C842.24 849.439 843.03 851.347 844.437 852.753C845.843 854.16 847.751 854.95 849.74 854.95C851.729 854.95 853.637 854.16 855.043 852.753C856.45 851.347 857.24 849.439 857.24 847.45C857.24 845.461 856.45 843.553 855.043 842.147C853.637 840.74 851.729 839.95 849.74 839.95C847.751 839.95 845.843 840.74 844.437 842.147C843.03 843.553 842.24 845.461 842.24 847.45ZM842.24 772.45C842.24 774.439 843.03 776.347 844.437 777.753C845.843 779.16 847.751 779.95 849.74 779.95C851.729 779.95 853.637 779.16 855.043 777.753C856.45 776.347 857.24 774.439 857.24 772.45C857.24 770.461 856.45 768.553 855.043 767.147C853.637 765.74 851.729 764.95 849.74 764.95C847.751 764.95 845.843 765.74 844.437 767.147C843.03 768.553 842.24 770.461 842.24 772.45ZM1037.11 509.95C1037.11 511.939 1037.9 513.847 1039.31 515.253C1040.71 516.66 1042.62 517.45 1044.61 517.45C1046.6 517.45 1048.51 516.66 1049.91 515.253C1051.32 513.847 1052.11 511.939 1052.11 509.95C1052.11 507.961 1051.32 506.053 1049.91 504.647C1048.51 503.24 1046.6 502.45 1044.61 502.45C1042.62 502.45 1040.71 503.24 1039.31 504.647C1037.9 506.053 1037.11 507.961 1037.11 509.95ZM1102.06 547.45C1102.06 549.439 1102.85 551.347 1104.26 552.753C1105.66 554.16 1107.57 554.95 1109.56 554.95C1111.55 554.95 1113.46 554.16 1114.86 552.753C1116.27 551.347 1117.06 549.439 1117.06 547.45C1117.06 545.461 1116.27 543.553 1114.86 542.147C1113.46 540.74 1111.55 539.95 1109.56 539.95C1107.57 539.95 1105.66 540.74 1104.26 542.147C1102.85 543.553 1102.06 545.461 1102.06 547.45ZM1102.06 622.45C1102.06 624.439 1102.85 626.347 1104.26 627.753C1105.66 629.16 1107.57 629.95 1109.56 629.95C1111.55 629.95 1113.46 629.16 1114.86 627.753C1116.27 626.347 1117.06 624.439 1117.06 622.45C1117.06 620.461 1116.27 618.553 1114.86 617.147C1113.46 615.74 1111.55 614.95 1109.56 614.95C1107.57 614.95 1105.66 615.74 1104.26 617.147C1102.85 618.553 1102.06 620.461 1102.06 622.45ZM1037.11 659.95C1037.11 661.939 1037.9 663.847 1039.31 665.253C1040.71 666.66 1042.62 667.45 1044.61 667.45C1046.6 667.45 1048.51 666.66 1049.91 665.253C1051.32 663.847 1052.11 661.939 1052.11 659.95C1052.11 657.961 1051.32 656.053 1049.91 654.647C1048.51 653.24 1046.6 652.45 1044.61 652.45C1042.62 652.45 1040.71 653.24 1039.31 654.647C1037.9 656.053 1037.11 657.961 1037.11 659.95ZM972.15 622.45C972.15 624.439 972.94 626.347 974.347 627.753C975.753 629.16 977.661 629.95 979.65 629.95C981.639 629.95 983.547 629.16 984.953 627.753C986.36 626.347 987.15 624.439 987.15 622.45C987.15 620.461 986.36 618.553 984.953 617.147C983.547 615.74 981.639 614.95 979.65 614.95C977.661 614.95 975.753 615.74 974.347 617.147C972.94 618.553 972.15 620.461 972.15 622.45ZM972.15 547.45C972.15 549.439 972.94 551.347 974.347 552.753C975.753 554.16 977.661 554.95 979.65 554.95C981.639 554.95 983.547 554.16 984.953 552.753C986.36 551.347 987.15 549.439 987.15 547.45C987.15 545.461 986.36 543.553 984.953 542.147C983.547 540.74 981.639 539.95 979.65 539.95C977.661 539.95 975.753 540.74 974.347 542.147C972.94 543.553 972.15 545.461 972.15 547.45ZM1167.01 284.95C1167.01 286.939 1167.8 288.847 1169.21 290.253C1170.61 291.66 1172.52 292.45 1174.51 292.45C1176.5 292.45 1178.41 291.66 1179.81 290.253C1181.22 288.847 1182.01 286.939 1182.01 284.95C1182.01 282.961 1181.22 281.053 1179.81 279.647C1178.41 278.24 1176.5 277.45 1174.51 277.45C1172.52 277.45 1170.61 278.24 1169.21 279.647C1167.8 281.053 1167.01 282.961 1167.01 284.95ZM1231.97 322.45C1231.97 324.439 1232.76 326.347 1234.17 327.753C1235.57 329.16 1237.48 329.95 1239.47 329.95C1241.46 329.95 1243.37 329.16 1244.77 327.753C1246.18 326.347 1246.97 324.439 1246.97 322.45C1246.97 320.461 1246.18 318.553 1244.77 317.147C1243.37 315.74 1241.46 314.95 1239.47 314.95C1237.48 314.95 1235.57 315.74 1234.17 317.147C1232.76 318.553 1231.97 320.461 1231.97 322.45ZM1231.97 397.45C1231.97 399.439 1232.76 401.347 1234.17 402.753C1235.57 404.16 1237.48 404.95 1239.47 404.95C1241.46 404.95 1243.37 404.16 1244.77 402.753C1246.18 401.347 1246.97 399.439 1246.97 397.45C1246.97 395.461 1246.18 393.553 1244.77 392.147C1243.37 390.74 1241.46 389.95 1239.47 389.95C1237.48 389.95 1235.57 390.74 1234.17 392.147C1232.76 393.553 1231.97 395.461 1231.97 397.45ZM1167.01 434.95C1167.01 436.939 1167.8 438.847 1169.21 440.253C1170.61 441.66 1172.52 442.45 1174.51 442.45C1176.5 442.45 1178.41 441.66 1179.81 440.253C1181.22 438.847 1182.01 436.939 1182.01 434.95C1182.01 432.961 1181.22 431.053 1179.81 429.647C1178.41 428.24 1176.5 427.45 1174.51 427.45C1172.52 427.45 1170.61 428.24 1169.21 429.647C1167.8 431.053 1167.01 432.961 1167.01 434.95ZM1102.06 397.45C1102.06 399.439 1102.85 401.347 1104.26 402.753C1105.66 404.16 1107.57 404.95 1109.56 404.95C1111.55 404.95 1113.46 404.16 1114.86 402.753C1116.27 401.347 1117.06 399.439 1117.06 397.45C1117.06 395.461 1116.27 393.553 1114.86 392.147C1113.46 390.74 1111.55 389.95 1109.56 389.95C1107.57 389.95 1105.66 390.74 1104.26 392.147C1102.85 393.553 1102.06 395.461 1102.06 397.45ZM1102.06 322.45C1102.06 324.439 1102.85 326.347 1104.26 327.753C1105.66 329.16 1107.57 329.95 1109.56 329.95C1111.55 329.95 1113.46 329.16 1114.86 327.753C1116.27 326.347 1117.06 324.439 1117.06 322.45C1117.06 320.461 1116.27 318.553 1114.86 317.147C1113.46 315.74 1111.55 314.95 1109.56 314.95C1107.57 314.95 1105.66 315.74 1104.26 317.147C1102.85 318.553 1102.06 320.461 1102.06 322.45ZM1296.92 434.95C1296.92 436.939 1297.71 438.847 1299.12 440.253C1300.52 441.66 1302.43 442.45 1304.42 442.45C1306.41 442.45 1308.32 441.66 1309.72 440.253C1311.13 438.847 1311.92 436.939 1311.92 434.95C1311.92 432.961 1311.13 431.053 1309.72 429.647C1308.32 428.24 1306.41 427.45 1304.42 427.45C1302.43 427.45 1300.52 428.24 1299.12 429.647C1297.71 431.053 1296.92 432.961 1296.92 434.95ZM1296.92 509.95C1296.92 511.939 1297.71 513.847 1299.12 515.253C1300.52 516.66 1302.43 517.45 1304.42 517.45C1306.41 517.45 1308.32 516.66 1309.72 515.253C1311.13 513.847 1311.92 511.939 1311.92 509.95C1311.92 507.961 1311.13 506.053 1309.72 504.647C1308.32 503.24 1306.41 502.45 1304.42 502.45C1302.43 502.45 1300.52 503.24 1299.12 504.647C1297.71 506.053 1296.92 507.961 1296.92 509.95ZM1231.97 547.45C1231.97 549.439 1232.76 551.347 1234.17 552.753C1235.57 554.16 1237.48 554.95 1239.47 554.95C1241.46 554.95 1243.37 554.16 1244.77 552.753C1246.18 551.347 1246.97 549.439 1246.97 547.45C1246.97 545.461 1246.18 543.553 1244.77 542.147C1243.37 540.74 1241.46 539.95 1239.47 539.95C1237.48 539.95 1235.57 540.74 1234.17 542.147C1232.76 543.553 1231.97 545.461 1231.97 547.45ZM1167.01 509.95C1167.01 511.939 1167.8 513.847 1169.21 515.253C1170.61 516.66 1172.52 517.45 1174.51 517.45C1176.5 517.45 1178.41 516.66 1179.81 515.253C1181.22 513.847 1182.01 511.939 1182.01 509.95C1182.01 507.961 1181.22 506.053 1179.81 504.647C1178.41 503.24 1176.5 502.45 1174.51 502.45C1172.52 502.45 1170.61 503.24 1169.21 504.647C1167.8 506.053 1167.01 507.961 1167.01 509.95ZM1426.83 959.95C1426.83 961.939 1427.62 963.847 1429.03 965.253C1430.43 966.66 1432.34 967.45 1434.33 967.45C1436.32 967.45 1438.23 966.66 1439.63 965.253C1441.04 963.847 1441.83 961.939 1441.83 959.95C1441.83 957.961 1441.04 956.053 1439.63 954.647C1438.23 953.24 1436.32 952.45 1434.33 952.45C1432.34 952.45 1430.43 953.24 1429.03 954.647C1427.62 956.053 1426.83 957.961 1426.83 959.95ZM1491.78 997.45C1491.78 999.439 1492.57 1001.35 1493.98 1002.75C1495.38 1004.16 1497.29 1004.95 1499.28 1004.95C1501.27 1004.95 1503.18 1004.16 1504.58 1002.75C1505.99 1001.35 1506.78 999.439 1506.78 997.45C1506.78 995.461 1505.99 993.553 1504.58 992.147C1503.18 990.74 1501.27 989.95 1499.28 989.95C1497.29 989.95 1495.38 990.74 1493.98 992.147C1492.57 993.553 1491.78 995.461 1491.78 997.45ZM1491.78 1072.45C1491.78 1074.44 1492.57 1076.35 1493.98 1077.75C1495.38 1079.16 1497.29 1079.95 1499.28 1079.95C1501.27 1079.95 1503.18 1079.16 1504.58 1077.75C1505.99 1076.35 1506.78 1074.44 1506.78 1072.45C1506.78 1070.46 1505.99 1068.55 1504.58 1067.15C1503.18 1065.74 1501.27 1064.95 1499.28 1064.95C1497.29 1064.95 1495.38 1065.74 1493.98 1067.15C1492.57 1068.55 1491.78 1070.46 1491.78 1072.45ZM1426.83 1109.95C1426.83 1111.94 1427.62 1113.85 1429.03 1115.25C1430.43 1116.66 1432.34 1117.45 1434.33 1117.45C1436.32 1117.45 1438.23 1116.66 1439.63 1115.25C1441.04 1113.85 1441.83 1111.94 1441.83 1109.95C1441.83 1107.96 1441.04 1106.05 1439.63 1104.65C1438.23 1103.24 1436.32 1102.45 1434.33 1102.45C1432.34 1102.45 1430.43 1103.24 1429.03 1104.65C1427.62 1106.05 1426.83 1107.96 1426.83 1109.95ZM1361.88 1072.45C1361.88 1074.44 1362.67 1076.35 1364.08 1077.75C1365.48 1079.16 1367.39 1079.95 1369.38 1079.95C1371.37 1079.95 1373.28 1079.16 1374.68 1077.75C1376.09 1076.35 1376.88 1074.44 1376.88 1072.45C1376.88 1070.46 1376.09 1068.55 1374.68 1067.15C1373.28 1065.74 1371.37 1064.95 1369.38 1064.95C1367.39 1064.95 1365.48 1065.74 1364.08 1067.15C1362.67 1068.55 1361.88 1070.46 1361.88 1072.45ZM1361.88 997.45C1361.88 999.439 1362.67 1001.35 1364.08 1002.75C1365.48 1004.16 1367.39 1004.95 1369.38 1004.95C1371.37 1004.95 1373.28 1004.16 1374.68 1002.75C1376.09 1001.35 1376.88 999.439 1376.88 997.45C1376.88 995.461 1376.09 993.553 1374.68 992.147C1373.28 990.74 1371.37 989.95 1369.38 989.95C1367.39 989.95 1365.48 990.74 1364.08 992.147C1362.67 993.553 1361.88 995.461 1361.88 997.45ZM1621.69 397.45C1621.69 399.439 1622.48 401.347 1623.89 402.753C1625.29 404.16 1627.2 404.95 1629.19 404.95C1631.18 404.95 1633.09 404.16 1634.49 402.753C1635.9 401.347 1636.69 399.439 1636.69 397.45C1636.69 395.461 1635.9 393.553 1634.49 392.147C1633.09 390.74 1631.18 389.95 1629.19 389.95C1627.2 389.95 1625.29 390.74 1623.89 392.147C1622.48 393.553 1621.69 395.461 1621.69 397.45ZM1686.64 434.95C1686.64 436.939 1687.43 438.847 1688.84 440.253C1690.24 441.66 1692.15 442.45 1694.14 442.45C1696.13 442.45 1698.04 441.66 1699.44 440.253C1700.85 438.847 1701.64 436.939 1701.64 434.95C1701.64 432.961 1700.85 431.053 1699.44 429.647C1698.04 428.24 1696.13 427.45 1694.14 427.45C1692.15 427.45 1690.24 428.24 1688.84 429.647C1687.43 431.053 1686.64 432.961 1686.64 434.95ZM1686.64 509.95C1686.64 511.939 1687.43 513.847 1688.84 515.253C1690.24 516.66 1692.15 517.45 1694.14 517.45C1696.13 517.45 1698.04 516.66 1699.44 515.253C1700.85 513.847 1701.64 511.939 1701.64 509.95C1701.64 507.961 1700.85 506.053 1699.44 504.647C1698.04 503.24 1696.13 502.45 1694.14 502.45C1692.15 502.45 1690.24 503.24 1688.84 504.647C1687.43 506.053 1686.64 507.961 1686.64 509.95ZM1621.69 547.45C1621.69 549.439 1622.48 551.347 1623.89 552.753C1625.29 554.16 1627.2 554.95 1629.19 554.95C1631.18 554.95 1633.09 554.16 1634.49 552.753C1635.9 551.347 1636.69 549.439 1636.69 547.45C1636.69 545.461 1635.9 543.553 1634.49 542.147C1633.09 540.74 1631.18 539.95 1629.19 539.95C1627.2 539.95 1625.29 540.74 1623.89 542.147C1622.48 543.553 1621.69 545.461 1621.69 547.45ZM1556.74 509.95C1556.74 511.939 1557.53 513.847 1558.94 515.253C1560.34 516.66 1562.25 517.45 1564.24 517.45C1566.23 517.45 1568.14 516.66 1569.54 515.253C1570.95 513.847 1571.74 511.939 1571.74 509.95C1571.74 507.961 1570.95 506.053 1569.54 504.647C1568.14 503.24 1566.23 502.45 1564.24 502.45C1562.25 502.45 1560.34 503.24 1558.94 504.647C1557.53 506.053 1556.74 507.961 1556.74 509.95ZM1556.74 434.95C1556.74 436.939 1557.53 438.847 1558.94 440.253C1560.34 441.66 1562.25 442.45 1564.24 442.45C1566.23 442.45 1568.14 441.66 1569.54 440.253C1570.95 438.847 1571.74 436.939 1571.74 434.95C1571.74 432.961 1570.95 431.053 1569.54 429.647C1568.14 428.24 1566.23 427.45 1564.24 427.45C1562.25 427.45 1560.34 428.24 1558.94 429.647C1557.53 431.053 1556.74 432.961 1556.74 434.95ZM1751.6 547.45C1751.6 549.439 1752.39 551.347 1753.8 552.753C1755.2 554.16 1757.11 554.95 1759.1 554.95C1761.09 554.95 1763 554.16 1764.4 552.753C1765.81 551.347 1766.6 549.439 1766.6 547.45C1766.6 545.461 1765.81 543.553 1764.4 542.147C1763 540.74 1761.09 539.95 1759.1 539.95C1757.11 539.95 1755.2 540.74 1753.8 542.147C1752.39 543.553 1751.6 545.461 1751.6 547.45ZM1751.6 622.45C1751.6 624.439 1752.39 626.347 1753.8 627.753C1755.2 629.16 1757.11 629.95 1759.1 629.95C1761.09 629.95 1763 629.16 1764.4 627.753C1765.81 626.347 1766.6 624.439 1766.6 622.45C1766.6 620.461 1765.81 618.553 1764.4 617.147C1763 615.74 1761.09 614.95 1759.1 614.95C1757.11 614.95 1755.2 615.74 1753.8 617.147C1752.39 618.553 1751.6 620.461 1751.6 622.45ZM1686.64 659.95C1686.64 661.939 1687.43 663.847 1688.84 665.253C1690.24 666.66 1692.15 667.45 1694.14 667.45C1696.13 667.45 1698.04 666.66 1699.44 665.253C1700.85 663.847 1701.64 661.939 1701.64 659.95C1701.64 657.961 1700.85 656.053 1699.44 654.647C1698.04 653.24 1696.13 652.45 1694.14 652.45C1692.15 652.45 1690.24 653.24 1688.84 654.647C1687.43 656.053 1686.64 657.961 1686.64 659.95ZM1621.69 622.45C1621.69 624.439 1622.48 626.347 1623.89 627.753C1625.29 629.16 1627.2 629.95 1629.19 629.95C1631.18 629.95 1633.09 629.16 1634.49 627.753C1635.9 626.347 1636.69 624.439 1636.69 622.45C1636.69 620.461 1635.9 618.553 1634.49 617.147C1633.09 615.74 1631.18 614.95 1629.19 614.95C1627.2 614.95 1625.29 615.74 1623.89 617.147C1622.48 618.553 1621.69 620.461 1621.69 622.45ZM1686.64 734.95C1686.64 736.939 1687.43 738.847 1688.84 740.253C1690.24 741.66 1692.15 742.45 1694.14 742.45C1696.13 742.45 1698.04 741.66 1699.44 740.253C1700.85 738.847 1701.64 736.939 1701.64 734.95C1701.64 732.961 1700.85 731.053 1699.44 729.647C1698.04 728.24 1696.13 727.45 1694.14 727.45C1692.15 727.45 1690.24 728.24 1688.84 729.647C1687.43 731.053 1686.64 732.961 1686.64 734.95ZM1621.69 772.45C1621.69 774.439 1622.48 776.347 1623.89 777.753C1625.29 779.16 1627.2 779.95 1629.19 779.95C1631.18 779.95 1633.09 779.16 1634.49 777.753C1635.9 776.347 1636.69 774.439 1636.69 772.45C1636.69 770.461 1635.9 768.553 1634.49 767.147C1633.09 765.74 1631.18 764.95 1629.19 764.95C1627.2 764.95 1625.29 765.74 1623.89 767.147C1622.48 768.553 1621.69 770.461 1621.69 772.45ZM1556.74 734.95C1556.74 736.939 1557.53 738.847 1558.94 740.253C1560.34 741.66 1562.25 742.45 1564.24 742.45C1566.23 742.45 1568.14 741.66 1569.54 740.253C1570.95 738.847 1571.74 736.939 1571.74 734.95C1571.74 732.961 1570.95 731.053 1569.54 729.647C1568.14 728.24 1566.23 727.45 1564.24 727.45C1562.25 727.45 1560.34 728.24 1558.94 729.647C1557.53 731.053 1556.74 732.961 1556.74 734.95ZM1556.74 659.95C1556.74 661.939 1557.53 663.847 1558.94 665.253C1560.34 666.66 1562.25 667.45 1564.24 667.45C1566.23 667.45 1568.14 666.66 1569.54 665.253C1570.95 663.847 1571.74 661.939 1571.74 659.95C1571.74 657.961 1570.95 656.053 1569.54 654.647C1568.14 653.24 1566.23 652.45 1564.24 652.45C1562.25 652.45 1560.34 653.24 1558.94 654.647C1557.53 656.053 1556.74 657.961 1556.74 659.95ZM1816.55 59.95C1816.55 61.9391 1817.34 63.8468 1818.75 65.2533C1820.15 66.6598 1822.06 67.45 1824.05 67.45C1826.04 67.45 1827.95 66.6598 1829.35 65.2533C1830.76 63.8468 1831.55 61.9391 1831.55 59.95C1831.55 57.9609 1830.76 56.0532 1829.35 54.6467C1827.95 53.2402 1826.04 52.45 1824.05 52.45C1822.06 52.45 1820.15 53.2402 1818.75 54.6467C1817.34 56.0532 1816.55 57.9609 1816.55 59.95ZM1881.5 97.45C1881.5 99.4391 1882.29 101.347 1883.7 102.753C1885.1 104.16 1887.01 104.95 1889 104.95C1890.99 104.95 1892.9 104.16 1894.3 102.753C1895.71 101.347 1896.5 99.4391 1896.5 97.45C1896.5 95.4609 1895.71 93.5532 1894.3 92.1467C1892.9 90.7402 1890.99 89.95 1889 89.95C1887.01 89.95 1885.1 90.7402 1883.7 92.1467C1882.29 93.5532 1881.5 95.4609 1881.5 97.45ZM1881.5 172.45C1881.5 174.439 1882.29 176.347 1883.7 177.753C1885.1 179.16 1887.01 179.95 1889 179.95C1890.99 179.95 1892.9 179.16 1894.3 177.753C1895.71 176.347 1896.5 174.439 1896.5 172.45C1896.5 170.461 1895.71 168.553 1894.3 167.147C1892.9 165.74 1890.99 164.95 1889 164.95C1887.01 164.95 1885.1 165.74 1883.7 167.147C1882.29 168.553 1881.5 170.461 1881.5 172.45ZM1816.55 209.95C1816.55 211.939 1817.34 213.847 1818.75 215.253C1820.15 216.66 1822.06 217.45 1824.05 217.45C1826.04 217.45 1827.95 216.66 1829.35 215.253C1830.76 213.847 1831.55 211.939 1831.55 209.95C1831.55 207.961 1830.76 206.053 1829.35 204.647C1827.95 203.24 1826.04 202.45 1824.05 202.45C1822.06 202.45 1820.15 203.24 1818.75 204.647C1817.34 206.053 1816.55 207.961 1816.55 209.95ZM1751.6 172.45C1751.6 174.439 1752.39 176.347 1753.8 177.753C1755.2 179.16 1757.11 179.95 1759.1 179.95C1761.09 179.95 1763 179.16 1764.4 177.753C1765.81 176.347 1766.6 174.439 1766.6 172.45C1766.6 170.461 1765.81 168.553 1764.4 167.147C1763 165.74 1761.09 164.95 1759.1 164.95C1757.11 164.95 1755.2 165.74 1753.8 167.147C1752.39 168.553 1751.6 170.461 1751.6 172.45ZM1751.6 97.45C1751.6 99.4391 1752.39 101.347 1753.8 102.753C1755.2 104.16 1757.11 104.95 1759.1 104.95C1761.09 104.95 1763 104.16 1764.4 102.753C1765.81 101.347 1766.6 99.4391 1766.6 97.45C1766.6 95.4609 1765.81 93.5532 1764.4 92.1467C1763 90.7402 1761.09 89.95 1759.1 89.95C1757.11 89.95 1755.2 90.7402 1753.8 92.1467C1752.39 93.5532 1751.6 95.4609 1751.6 97.45ZM1816.55 284.95C1816.55 286.939 1817.34 288.847 1818.75 290.253C1820.15 291.66 1822.06 292.45 1824.05 292.45C1826.04 292.45 1827.95 291.66 1829.35 290.253C1830.76 288.847 1831.55 286.939 1831.55 284.95C1831.55 282.961 1830.76 281.053 1829.35 279.647C1827.95 278.24 1826.04 277.45 1824.05 277.45C1822.06 277.45 1820.15 278.24 1818.75 279.647C1817.34 281.053 1816.55 282.961 1816.55 284.95ZM1881.5 322.45C1881.5 324.439 1882.29 326.347 1883.7 327.753C1885.1 329.16 1887.01 329.95 1889 329.95C1890.99 329.95 1892.9 329.16 1894.3 327.753C1895.71 326.347 1896.5 324.439 1896.5 322.45C1896.5 320.461 1895.71 318.553 1894.3 317.147C1892.9 315.74 1890.99 314.95 1889 314.95C1887.01 314.95 1885.1 315.74 1883.7 317.147C1882.29 318.553 1881.5 320.461 1881.5 322.45ZM1881.5 397.45C1881.5 399.439 1882.29 401.347 1883.7 402.753C1885.1 404.16 1887.01 404.95 1889 404.95C1890.99 404.95 1892.9 404.16 1894.3 402.753C1895.71 401.347 1896.5 399.439 1896.5 397.45C1896.5 395.461 1895.71 393.553 1894.3 392.147C1892.9 390.74 1890.99 389.95 1889 389.95C1887.01 389.95 1885.1 390.74 1883.7 392.147C1882.29 393.553 1881.5 395.461 1881.5 397.45ZM1816.55 434.95C1816.55 436.939 1817.34 438.847 1818.75 440.253C1820.15 441.66 1822.06 442.45 1824.05 442.45C1826.04 442.45 1827.95 441.66 1829.35 440.253C1830.76 438.847 1831.55 436.939 1831.55 434.95C1831.55 432.961 1830.76 431.053 1829.35 429.647C1827.95 428.24 1826.04 427.45 1824.05 427.45C1822.06 427.45 1820.15 428.24 1818.75 429.647C1817.34 431.053 1816.55 432.961 1816.55 434.95ZM1751.6 397.45C1751.6 399.439 1752.39 401.347 1753.8 402.753C1755.2 404.16 1757.11 404.95 1759.1 404.95C1761.09 404.95 1763 404.16 1764.4 402.753C1765.81 401.347 1766.6 399.439 1766.6 397.45C1766.6 395.461 1765.81 393.553 1764.4 392.147C1763 390.74 1761.09 389.95 1759.1 389.95C1757.11 389.95 1755.2 390.74 1753.8 392.147C1752.39 393.553 1751.6 395.461 1751.6 397.45ZM1751.6 322.45C1751.6 324.439 1752.39 326.347 1753.8 327.753C1755.2 329.16 1757.11 329.95 1759.1 329.95C1761.09 329.95 1763 329.16 1764.4 327.753C1765.81 326.347 1766.6 324.439 1766.6 322.45C1766.6 320.461 1765.81 318.553 1764.4 317.147C1763 315.74 1761.09 314.95 1759.1 314.95C1757.11 314.95 1755.2 315.74 1753.8 317.147C1752.39 318.553 1751.6 320.461 1751.6 322.45ZM1751.6 847.45C1751.6 849.439 1752.39 851.347 1753.8 852.753C1755.2 854.16 1757.11 854.95 1759.1 854.95C1761.09 854.95 1763 854.16 1764.4 852.753C1765.81 851.347 1766.6 849.439 1766.6 847.45C1766.6 845.461 1765.81 843.553 1764.4 842.147C1763 840.74 1761.09 839.95 1759.1 839.95C1757.11 839.95 1755.2 840.74 1753.8 842.147C1752.39 843.553 1751.6 845.461 1751.6 847.45ZM1816.55 884.95C1816.55 886.939 1817.34 888.847 1818.75 890.253C1820.15 891.66 1822.06 892.45 1824.05 892.45C1826.04 892.45 1827.95 891.66 1829.35 890.253C1830.76 888.847 1831.55 886.939 1831.55 884.95C1831.55 882.961 1830.76 881.053 1829.35 879.647C1827.95 878.24 1826.04 877.45 1824.05 877.45C1822.06 877.45 1820.15 878.24 1818.75 879.647C1817.34 881.053 1816.55 882.961 1816.55 884.95ZM1816.55 959.95C1816.55 961.939 1817.34 963.847 1818.75 965.253C1820.15 966.66 1822.06 967.45 1824.05 967.45C1826.04 967.45 1827.95 966.66 1829.35 965.253C1830.76 963.847 1831.55 961.939 1831.55 959.95C1831.55 957.961 1830.76 956.053 1829.35 954.647C1827.95 953.24 1826.04 952.45 1824.05 952.45C1822.06 952.45 1820.15 953.24 1818.75 954.647C1817.34 956.053 1816.55 957.961 1816.55 959.95ZM1751.6 997.45C1751.6 999.439 1752.39 1001.35 1753.8 1002.75C1755.2 1004.16 1757.11 1004.95 1759.1 1004.95C1761.09 1004.95 1763 1004.16 1764.4 1002.75C1765.81 1001.35 1766.6 999.439 1766.6 997.45C1766.6 995.461 1765.81 993.553 1764.4 992.147C1763 990.74 1761.09 989.95 1759.1 989.95C1757.11 989.95 1755.2 990.74 1753.8 992.147C1752.39 993.553 1751.6 995.461 1751.6 997.45ZM1686.64 959.95C1686.64 961.939 1687.43 963.847 1688.84 965.253C1690.24 966.66 1692.15 967.45 1694.14 967.45C1696.13 967.45 1698.04 966.66 1699.44 965.253C1700.85 963.847 1701.64 961.939 1701.64 959.95C1701.64 957.961 1700.85 956.053 1699.44 954.647C1698.04 953.24 1696.13 952.45 1694.14 952.45C1692.15 952.45 1690.24 953.24 1688.84 954.647C1687.43 956.053 1686.64 957.961 1686.64 959.95ZM1686.64 884.95C1686.64 886.939 1687.43 888.847 1688.84 890.253C1690.24 891.66 1692.15 892.45 1694.14 892.45C1696.13 892.45 1698.04 891.66 1699.44 890.253C1700.85 888.847 1701.64 886.939 1701.64 884.95C1701.64 882.961 1700.85 881.053 1699.44 879.647C1698.04 878.24 1696.13 877.45 1694.14 877.45C1692.15 877.45 1690.24 878.24 1688.84 879.647C1687.43 881.053 1686.64 882.961 1686.64 884.95ZM1946.46 209.95C1946.46 211.939 1947.25 213.847 1948.66 215.253C1950.06 216.66 1951.97 217.45 1953.96 217.45C1955.95 217.45 1957.86 216.66 1959.26 215.253C1960.67 213.847 1961.46 211.939 1961.46 209.95C1961.46 207.961 1960.67 206.053 1959.26 204.647C1957.86 203.24 1955.95 202.45 1953.96 202.45C1951.97 202.45 1950.06 203.24 1948.66 204.647C1947.25 206.053 1946.46 207.961 1946.46 209.95ZM1946.46 284.95C1946.46 286.939 1947.25 288.847 1948.66 290.253C1950.06 291.66 1951.97 292.45 1953.96 292.45C1955.95 292.45 1957.86 291.66 1959.26 290.253C1960.67 288.847 1961.46 286.939 1961.46 284.95C1961.46 282.961 1960.67 281.053 1959.26 279.647C1957.86 278.24 1955.95 277.45 1953.96 277.45C1951.97 277.45 1950.06 278.24 1948.66 279.647C1947.25 281.053 1946.46 282.961 1946.46 284.95ZM1946.46 434.95C1946.46 436.939 1947.25 438.847 1948.66 440.253C1950.06 441.66 1951.97 442.45 1953.96 442.45C1955.95 442.45 1957.86 441.66 1959.26 440.253C1960.67 438.847 1961.46 436.939 1961.46 434.95C1961.46 432.961 1960.67 431.053 1959.26 429.647C1957.86 428.24 1955.95 427.45 1953.96 427.45C1951.97 427.45 1950.06 428.24 1948.66 429.647C1947.25 431.053 1946.46 432.961 1946.46 434.95ZM1946.46 509.95C1946.46 511.939 1947.25 513.847 1948.66 515.253C1950.06 516.66 1951.97 517.45 1953.96 517.45C1955.95 517.45 1957.86 516.66 1959.26 515.253C1960.67 513.847 1961.46 511.939 1961.46 509.95C1961.46 507.961 1960.67 506.053 1959.26 504.647C1957.86 503.24 1955.95 502.45 1953.96 502.45C1951.97 502.45 1950.06 503.24 1948.66 504.647C1947.25 506.053 1946.46 507.961 1946.46 509.95ZM1881.5 547.45C1881.5 549.439 1882.29 551.347 1883.7 552.753C1885.1 554.16 1887.01 554.95 1889 554.95C1890.99 554.95 1892.9 554.16 1894.3 552.753C1895.71 551.347 1896.5 549.439 1896.5 547.45C1896.5 545.461 1895.71 543.553 1894.3 542.147C1892.9 540.74 1890.99 539.95 1889 539.95C1887.01 539.95 1885.1 540.74 1883.7 542.147C1882.29 543.553 1881.5 545.461 1881.5 547.45ZM1816.55 509.95C1816.55 511.939 1817.34 513.847 1818.75 515.253C1820.15 516.66 1822.06 517.45 1824.05 517.45C1826.04 517.45 1827.95 516.66 1829.35 515.253C1830.76 513.847 1831.55 511.939 1831.55 509.95C1831.55 507.961 1830.76 506.053 1829.35 504.647C1827.95 503.24 1826.04 502.45 1824.05 502.45C1822.06 502.45 1820.15 503.24 1818.75 504.647C1817.34 506.053 1816.55 507.961 1816.55 509.95ZM1946.46 734.95C1946.46 736.939 1947.25 738.847 1948.66 740.253C1950.06 741.66 1951.97 742.45 1953.96 742.45C1955.95 742.45 1957.86 741.66 1959.26 740.253C1960.67 738.847 1961.46 736.939 1961.46 734.95C1961.46 732.961 1960.67 731.053 1959.26 729.647C1957.86 728.24 1955.95 727.45 1953.96 727.45C1951.97 727.45 1950.06 728.24 1948.66 729.647C1947.25 731.053 1946.46 732.961 1946.46 734.95ZM2011.41 772.45C2011.41 774.439 2012.2 776.347 2013.61 777.753C2015.01 779.16 2016.92 779.95 2018.91 779.95C2020.9 779.95 2022.81 779.16 2024.21 777.753C2025.62 776.347 2026.41 774.439 2026.41 772.45C2026.41 770.461 2025.62 768.553 2024.21 767.147C2022.81 765.74 2020.9 764.95 2018.91 764.95C2016.92 764.95 2015.01 765.74 2013.61 767.147C2012.2 768.553 2011.41 770.461 2011.41 772.45ZM2011.41 847.45C2011.41 849.439 2012.2 851.347 2013.61 852.753C2015.01 854.16 2016.92 854.95 2018.91 854.95C2020.9 854.95 2022.81 854.16 2024.21 852.753C2025.62 851.347 2026.41 849.439 2026.41 847.45C2026.41 845.461 2025.62 843.553 2024.21 842.147C2022.81 840.74 2020.9 839.95 2018.91 839.95C2016.92 839.95 2015.01 840.74 2013.61 842.147C2012.2 843.553 2011.41 845.461 2011.41 847.45ZM1946.46 884.95C1946.46 886.939 1947.25 888.847 1948.66 890.253C1950.06 891.66 1951.97 892.45 1953.96 892.45C1955.95 892.45 1957.86 891.66 1959.26 890.253C1960.67 888.847 1961.46 886.939 1961.46 884.95C1961.46 882.961 1960.67 881.053 1959.26 879.647C1957.86 878.24 1955.95 877.45 1953.96 877.45C1951.97 877.45 1950.06 878.24 1948.66 879.647C1947.25 881.053 1946.46 882.961 1946.46 884.95ZM1881.5 847.45C1881.5 849.439 1882.29 851.347 1883.7 852.753C1885.1 854.16 1887.01 854.95 1889 854.95C1890.99 854.95 1892.9 854.16 1894.3 852.753C1895.71 851.347 1896.5 849.439 1896.5 847.45C1896.5 845.461 1895.71 843.553 1894.3 842.147C1892.9 840.74 1890.99 839.95 1889 839.95C1887.01 839.95 1885.1 840.74 1883.7 842.147C1882.29 843.553 1881.5 845.461 1881.5 847.45ZM1881.5 772.45C1881.5 774.439 1882.29 776.347 1883.7 777.753C1885.1 779.16 1887.01 779.95 1889 779.95C1890.99 779.95 1892.9 779.16 1894.3 777.753C1895.71 776.347 1896.5 774.439 1896.5 772.45C1896.5 770.461 1895.71 768.553 1894.3 767.147C1892.9 765.74 1890.99 764.95 1889 764.95C1887.01 764.95 1885.1 765.74 1883.7 767.147C1882.29 768.553 1881.5 770.461 1881.5 772.45Z" fill="#00AEEF" fill-opacity="0.4"/>
<path d="M66.51 461.11L109.81 436.11V386.11L66.51 361.11L23.21 386.11V436.11M66.51 461.11L23.21 436.11M66.51 461.11V511.11L23.21 536.11L-20.09 511.11V461.11L23.21 436.11M196.42 586.11V536.11L153.12 511.11L109.81 536.11V586.11L153.12 611.11M196.42 586.11L153.12 611.11M196.42 586.11L239.72 611.11M153.12 611.11V661.11L196.42 686.11M196.42 836.11L153.12 811.11L109.81 836.11V886.11L153.12 911.11L196.42 886.11M196.42 836.11V886.11M196.42 836.11L239.72 811.11M196.42 886.11L239.72 911.11L283.02 886.11M239.72 611.11V661.11M239.72 611.11L283.02 586.11L326.33 611.11V661.11L283.02 686.11M239.72 661.11L196.42 686.11M239.72 661.11L283.02 686.11M196.42 686.11V736.11L239.72 761.11M283.02 686.11V736.11M283.02 736.11L239.72 761.11M283.02 736.11L326.33 761.11M239.72 761.11V811.11M239.72 811.11L283.02 836.11M283.02 836.11V886.11M283.02 836.11L326.33 811.11M283.02 886.11L326.33 911.11L369.63 886.11M326.33 761.11V811.11M326.33 761.11L369.63 736.11M326.33 811.11L369.63 836.11M369.63 836.11V886.11M369.63 836.11L412.93 811.11M369.63 886.11L412.93 911.11M412.93 661.11L456.24 686.11M412.93 661.11L369.63 686.11V736.11M412.93 661.11V611.11L456.24 586.11L499.54 611.11M456.24 686.11V736.11M456.24 686.11L499.54 661.11M456.24 736.11L412.93 761.11M456.24 736.11L499.54 761.11M412.93 761.11L369.63 736.11M412.93 761.11V811.11M412.93 811.11L456.24 836.11M456.24 836.11V886.11M456.24 836.11L499.54 811.11M456.24 886.11L412.93 911.11M456.24 886.11L499.54 911.11V961.11L456.24 986.11L412.93 961.11V911.11M499.54 361.11L542.84 386.11M499.54 361.11L456.24 386.11V436.11M499.54 361.11V311.11L542.84 286.11L586.14 311.11M542.84 386.11V436.11L499.54 461.11M542.84 386.11L586.14 361.11M499.54 461.11L456.24 436.11M499.54 461.11V511.11L456.24 536.11L412.93 511.11V461.11L456.24 436.11M499.54 611.11V661.11M499.54 611.11L542.84 586.11L586.14 611.11M499.54 661.11L542.84 686.11L586.14 661.11M499.54 761.11V811.11M499.54 761.11L542.84 736.11L586.14 761.11V811.11L542.84 836.11L499.54 811.11M586.14 61.11L629.45 86.11M586.14 61.11L542.84 86.11V136.11L586.14 161.11L629.45 136.11V86.11M586.14 61.11V11.11L629.45 -13.89L672.75 11.11M629.45 86.11L672.75 61.11M586.14 311.11V361.11M586.14 311.11L629.45 286.11L672.75 311.11V361.11M586.14 361.11L629.45 386.11M586.14 611.11V661.11M586.14 611.11L629.45 586.11L672.75 611.11V661.11M586.14 661.11L629.45 686.11M672.75 11.11V61.11M672.75 11.11L716.05 -13.89L759.35 11.11V61.11M672.75 61.11L716.05 86.11M672.75 361.11L629.45 386.11M672.75 361.11L716.05 386.11M629.45 386.11V436.11L672.75 461.11L716.05 436.11M716.05 386.11V436.11M716.05 386.11L759.35 361.11L802.66 386.11V436.11L759.35 461.11L716.05 436.11M672.75 661.11L629.45 686.11M672.75 661.11L716.05 686.11V736.11L672.75 761.11L629.45 736.11V686.11M716.05 986.11L672.75 961.11L629.45 986.11V1036.11L672.75 1061.11L716.05 1036.11M716.05 986.11V1036.11M716.05 986.11L759.35 961.11M716.05 1036.11L759.35 1061.11M759.35 61.11L716.05 86.11M759.35 61.11L802.66 86.11M716.05 86.11V136.11L759.35 161.11L802.66 136.11M802.66 86.11V136.11M802.66 86.11L845.96 61.11L889.26 86.11M802.66 136.11L845.96 161.11M802.66 536.11L759.35 511.11L716.05 536.11V586.11L759.35 611.11L802.66 586.11M802.66 536.11V586.11M802.66 536.11L845.96 511.11M802.66 586.11L845.96 611.11M759.35 961.11L802.66 986.11M759.35 961.11V911.11L802.66 886.11L845.96 911.11M802.66 986.11V1036.11M802.66 986.11L845.96 961.11M802.66 1036.11L759.35 1061.11M802.66 1036.11L845.96 1061.11M759.35 1061.11V1111.11L802.66 1136.11L845.96 1111.11V1061.11M889.26 86.11V136.11M889.26 86.11L932.56 61.11M889.26 136.11L845.96 161.11M889.26 136.11L932.56 161.11M845.96 161.11V211.11L889.26 236.11M845.96 511.11L889.26 536.11M845.96 511.11V461.11L889.26 436.11L932.56 461.11V511.11L889.26 536.11M889.26 536.11V586.11M889.26 586.11L845.96 611.11M889.26 586.11L932.56 611.11V661.11M845.96 611.11V661.11M845.96 661.11L889.26 686.11M845.96 661.11L802.66 686.11V736.11L845.96 761.11L889.26 736.11M889.26 686.11V736.11M889.26 686.11L932.56 661.11M889.26 736.11L932.56 761.11M845.96 911.11V961.11M845.96 911.11L889.26 886.11M845.96 961.11L889.26 986.11M889.26 986.11V1036.11M889.26 986.11L932.56 961.11M889.26 1036.11L845.96 1061.11M889.26 1036.11L932.56 1061.11L975.87 1036.11V986.11M932.56 61.11L975.87 86.11M932.56 61.11V11.11L975.87 -13.89L1019.17 11.11M975.87 86.11V136.11L932.56 161.11M975.87 86.11L1019.17 61.11M932.56 161.11V211.11M932.56 211.11L889.26 236.11M932.56 211.11L975.87 236.11V286.11L932.56 311.11L889.26 286.11V236.11M932.56 661.11L975.87 686.11V736.11M975.87 736.11L932.56 761.11M975.87 736.11L1019.17 761.11M932.56 761.11V811.11M932.56 811.11L975.87 836.11M932.56 811.11L889.26 836.11V886.11M975.87 836.11V886.11M975.87 836.11L1019.17 811.11M975.87 886.11L932.56 911.11M975.87 886.11L1019.17 911.11M932.56 911.11L889.26 886.11M932.56 911.11V961.11M932.56 961.11L975.87 986.11M975.87 986.11L1019.17 961.11M1019.17 11.11V61.11M1019.17 11.11L1062.47 -13.89L1105.77 11.11V61.11M1019.17 61.11L1062.47 86.11M1019.17 761.11V811.11M1019.17 761.11L1062.47 736.11L1105.77 761.11V811.11M1019.17 811.11L1062.47 836.11M1019.17 911.11V961.11M1019.17 911.11L1062.47 886.11M1019.17 961.11L1062.47 986.11M1105.77 61.11L1062.47 86.11M1105.77 61.11L1149.08 86.11V136.11L1105.77 161.11L1062.47 136.11V86.11M1105.77 811.11L1062.47 836.11M1105.77 811.11L1149.08 836.11V886.11L1105.77 911.11M1062.47 836.11V886.11M1105.77 911.11L1062.47 886.11M1105.77 911.11V961.11M1105.77 961.11L1062.47 986.11M1105.77 961.11L1149.08 986.11V1036.11M1062.47 986.11V1036.11L1105.77 1061.11M1149.08 1036.11L1105.77 1061.11M1149.08 1036.11L1192.38 1061.11V1111.11L1149.08 1136.11L1105.77 1111.11V1061.11M1192.38 361.11L1235.68 386.11M1192.38 361.11L1149.08 386.11V436.11M1192.38 361.11V311.11L1235.68 286.11L1278.98 311.11V361.11L1235.68 386.11M1235.68 386.11V436.11M1235.68 436.11L1192.38 461.11M1235.68 436.11L1278.98 461.11V511.11L1235.68 536.11M1192.38 461.11L1149.08 436.11M1192.38 461.11V511.11M1149.08 436.11L1105.77 461.11V511.11L1149.08 536.11M1192.38 511.11L1149.08 536.11M1192.38 511.11L1235.68 536.11M1149.08 536.11V586.11L1192.38 611.11M1235.68 536.11V586.11M1235.68 586.11L1192.38 611.11M1235.68 586.11L1278.98 611.11M1192.38 611.11V661.11L1235.68 686.11L1278.98 661.11M1278.98 611.11V661.11M1278.98 611.11L1322.29 586.11L1365.59 611.11M1278.98 661.11L1322.29 686.11L1365.59 661.11M1278.98 911.11L1322.29 886.11V836.11L1278.98 811.11L1235.68 836.11V886.11M1278.98 911.11L1235.68 886.11M1278.98 911.11V961.11L1235.68 986.11L1192.38 961.11V911.11L1235.68 886.11M1365.59 61.11L1408.89 86.11M1365.59 61.11L1322.29 86.11V136.11L1365.59 161.11L1408.89 136.11M1365.59 61.11V11.11L1408.89 -13.89L1452.19 11.11V61.11M1408.89 86.11V136.11M1408.89 86.11L1452.19 61.11M1408.89 136.11L1452.19 161.11L1495.5 136.11V86.11L1452.19 61.11M1408.89 236.11L1365.59 211.11L1322.29 236.11V286.11L1365.59 311.11L1408.89 286.11M1408.89 236.11V286.11M1408.89 236.11L1452.19 211.11L1495.5 236.11V286.11L1452.19 311.11L1408.89 286.11M1365.59 611.11V661.11M1365.59 611.11L1408.89 586.11L1452.19 611.11V661.11L1408.89 686.11L1365.59 661.11M1495.5 986.11L1452.19 961.11L1408.89 986.11V1036.11L1452.19 1061.11M1495.5 986.11V1036.11M1495.5 986.11L1538.8 961.11L1582.1 986.11V1036.11L1538.8 1061.11M1495.5 1036.11L1452.19 1061.11M1495.5 1036.11L1538.8 1061.11M1452.19 1061.11V1111.11L1495.5 1136.11L1538.8 1111.11V1061.11M1538.8 761.11L1495.5 736.11L1452.19 761.11V811.11L1495.5 836.11L1538.8 811.11M1538.8 761.11V811.11M1538.8 761.11L1582.1 736.11L1625.4 761.11V811.11M1538.8 811.11L1582.1 836.11M1625.4 61.11V11.11L1582.1 -13.89L1538.8 11.11V61.11L1582.1 86.11M1625.4 61.11L1582.1 86.11M1625.4 61.11L1668.71 86.11M1582.1 86.11V136.11L1625.4 161.11L1668.71 136.11M1668.71 86.11V136.11M1668.71 86.11L1712.01 61.11L1755.31 86.11M1668.71 136.11L1712.01 161.11L1755.31 136.11M1625.4 361.11L1668.71 386.11M1625.4 361.11L1582.1 386.11V436.11M1625.4 361.11V311.11L1668.71 286.11L1712.01 311.11V361.11L1668.71 386.11M1668.71 386.11V436.11L1625.4 461.11M1625.4 461.11L1582.1 436.11M1625.4 461.11V511.11L1582.1 536.11L1538.8 511.11V461.11L1582.1 436.11M1625.4 811.11L1582.1 836.11M1625.4 811.11L1668.71 836.11M1582.1 836.11V886.11L1625.4 911.11L1668.71 886.11M1668.71 836.11V886.11M1668.71 836.11L1712.01 811.11L1755.31 836.11V886.11L1712.01 911.11L1668.71 886.11M1755.31 86.11V136.11M1755.31 86.11L1798.61 61.11L1841.92 86.11V136.11L1798.61 161.11L1755.31 136.11M1841.92 286.11V236.11L1798.61 211.11L1755.31 236.11V286.11L1798.61 311.11M1841.92 286.11L1798.61 311.11M1841.92 286.11L1885.22 311.11V361.11L1841.92 386.11L1798.61 361.11V311.11M1841.92 1036.11V986.11L1798.61 961.11L1755.31 986.11V1036.11L1798.61 1061.11M1841.92 1036.11L1798.61 1061.11M1841.92 1036.11L1885.22 1061.11M1798.61 1061.11V1111.11L1841.92 1136.11L1885.22 1111.11M1885.22 511.11V461.11L1841.92 436.11L1798.61 461.11V511.11L1841.92 536.11M1885.22 511.11L1841.92 536.11M1885.22 511.11L1928.52 536.11V586.11L1885.22 611.11M1841.92 536.11V586.11M1885.22 611.11L1841.92 586.11M1885.22 611.11V661.11L1841.92 686.11L1798.61 661.11V611.11L1841.92 586.11M1885.22 1061.11V1111.11M1885.22 1061.11L1928.52 1036.11L1971.82 1061.11V1111.11L1928.52 1136.11L1885.22 1111.11M23.21 586.11L66.51 611.11V661.11L23.21 686.11L-20.09 661.11V611.11L23.21 586.11ZM109.81 136.11L153.12 161.11V211.11L109.81 236.11L66.51 211.11V161.11L109.81 136.11ZM153.12 961.11L196.42 986.11V1036.11L153.12 1061.11L109.81 1036.11V986.11L153.12 961.11ZM196.42 -13.89L239.72 11.11V61.11L196.42 86.11L153.12 61.11V11.11L196.42 -13.89ZM326.33 961.11L369.63 986.11V1036.11L326.33 1061.11L283.02 1036.11V986.11L326.33 961.11ZM1062.47 586.11L1105.77 611.11V661.11L1062.47 686.11L1019.17 661.11V611.11L1062.47 586.11ZM1235.68 -13.89L1278.98 11.11V61.11L1235.68 86.11L1192.38 61.11V11.11L1235.68 -13.89ZM1971.82 811.11L2015.13 836.11V886.11L1971.82 911.11L1928.52 886.11V836.11L1971.82 811.11Z" stroke="#5DCAF4" stroke-opacity="0.4" stroke-width="2"/>
</g>
</g>
<defs>
<clipPath id="clip0_2_30">
<rect width="1920" height="1080" fill="white"/>
</clipPath>
</defs>
</svg>
